<?xml version="1.0" standalone="no"?>
<!DOCTYPE svg PUBLIC "-//W3C//DTD SVG 1.1//EN" "http://www.w3.org/Graphics/SVG/1.1/DTD/svg11.dtd" >
<svg xmlns="http://www.w3.org/2000/svg" xmlns:xlink="http://www.w3.org/1999/xlink" version="1.1">
<metadata>
Created by FontForge 20200427 at Wed Jul 29 21:34:17 2020
 By www
2020 Iconian Fonts - www.iconian.com
</metadata>
<defs>
<font id="HeXkEy" horiz-adv-x="623" >
  <font-face 
    font-family="HeXkEy"
    font-weight="400"
    font-stretch="normal"
    units-per-em="1000"
    panose-1="0 0 0 0 0 0 0 0 0 0"
    ascent="800"
    descent="-200"
    x-height="521"
    cap-height="875"
    bbox="-61 -236 684 875"
    underline-thickness="50"
    underline-position="-125"
    unicode-range="U+0020-00B1"
  />
<missing-glyph horiz-adv-x="500" 
 />
    <glyph glyph-name=".notdef" horiz-adv-x="500" 
 />
    <glyph glyph-name=".null" horiz-adv-x="0" 
 />
    <glyph glyph-name="nonmarkingreturn" horiz-adv-x="500" 
 />
    <glyph glyph-name="FL0020h" unicode=" " horiz-adv-x="250" 
 />
    <glyph glyph-name="FL0021h" unicode="!" 
d="M418 359h-213l-95 182l95 183h213l93 -183zM109 204h405l170 337l-170 334h-408l-167 -334zM381 424v235h-141v-66h32v-169h109z" />
    <glyph glyph-name="FL0022h" unicode="&#x22;" 
d="M-61 541l167 334h408l170 -334l-170 -337h-405zM191 424v235h241v-235h-241zM511 541l-93 183h-213l-95 -183l95 -182h213z" />
    <glyph glyph-name="FL0023h" unicode="#" 
d="M-61 541l167 334h408l170 -334l-170 -337h-405zM511 541l-93 183h-213l-95 -183l95 -182h213zM425 513v-61q0 -10 -7.5 -19t-18.5 -9h-201v65h103q4 0 9 1t5 6v9q0 5 -5 6.5t-10 1.5h-100v56h101q5 0 9.5 1.5t4.5 6.5v9q0 5 -5 6t-9 1h-103v66h201q11 0 18.5 -9.5
t7.5 -18.5v-62q0 -8 -9.5 -16.5t-10.5 -10.5q6 -4 13 -14t7 -15z" />
    <glyph glyph-name="FL0024h" unicode="$" 
d="M-61 541l167 334h408l170 -334l-170 -337h-405zM511 541l-93 183h-213l-95 -183l95 -182h213zM300 659v-90h23v90h109v-235h-109v89h-132v146h109z" />
    <glyph glyph-name="FL0025h" unicode="%" 
d="M-61 541l167 334h408l170 -334l-170 -337h-405zM511 541l-93 183h-213l-95 -183l95 -182h213zM312 513h-121v146h241v-73h-109v9h-23v-13q0 -10 9 -13h96q11 0 19 -9t8 -17v-91q0 -10 -8 -19t-19 -9h-187q-11 0 -19 9t-8 19v44h109q0 -8 11 -8h1q9 0 11 9v6q-1 10 -11 10
z" />
    <glyph glyph-name="FL0026h" unicode="&#x26;" 
d="M-61 541l167 334h408l170 -334l-170 -337h-405zM511 541l-93 183h-213l-95 -183l95 -182h213zM425 612l-122 -188h-101l109 169h-113v66h227v-47z" />
    <glyph glyph-name="FL0C6Ah" unicode="'" 
d="M-61 187l167 334h408l170 -334l-170 -337h-405zM191 70v235h241v-235h-241zM511 187l-93 183h-213l-95 -183l95 -182h213z" />
    <glyph glyph-name="FL0028h" unicode="(" 
d="M-61 541l167 334h408l170 -334l-170 -337h-405zM511 541l-93 183h-213l-95 -183l95 -182h213zM405 659q11 0 19 -9.5t8 -18.5v-179q0 -10 -8 -19t-19 -9h-187q-11 0 -19 9t-8 19v44h109q0 -8 11 -8h1q9 0 11 9v4q0 9 -10 12h-95q-11 0 -19 9t-8 17v92q0 9 8 18.5t19 9.5
h187zM300 588v-22q0 -6 11 -8q11 2 12 8v22q0 4 -4 5.5t-8 1.5t-7.5 -1.5t-3.5 -5.5z" />
    <glyph glyph-name="FL0029h" unicode=")" 
d="M-61 541l167 334h408l170 -334l-170 -337h-405zM218 424q-11 0 -19 9t-8 19v179q0 9 8 18.5t19 9.5h187q11 0 19 -9.5t8 -18.5v-179q0 -10 -8 -19t-19 -9h-187zM300 498q0 -10 11 -10h1q11 0 11 10v86q0 11 -11 11h-1q-11 0 -11 -11v-86zM511 541l-93 183h-213l-95 -183
l95 -182h213z" />
    <glyph glyph-name="FL002Ah" unicode="*" 
d="M418 359h-213l-95 182l95 183h213l93 -183zM109 204h405l170 337l-170 334h-408l-167 -334zM300 566v22q0 4 3.5 5.5t7.5 1.5t8 -1.5t4 -5.5v-22q-1 -6 -12 -8q-11 2 -11 8zM432 452v60q0 5 -6.5 15.5t-12.5 14.5q2 3 10.5 11.5t8.5 16.5v61q0 9 -8 18.5t-19 9.5h-187
q-11 0 -19 -9.5t-8 -18.5v-61q0 -8 9 -17t10 -11q-4 -4 -11.5 -14.5t-7.5 -15.5v-60q0 -10 8 -19t19 -9h187q11 0 19 9t8 19zM300 494v22q0 7 11 7t12 -7v-22q0 -4 -4 -5t-8 -1t-7.5 1t-3.5 5z" />
    <glyph glyph-name="FL002Bh" unicode="+" horiz-adv-x="279" 
d="M247 359h-213l-95 182l95 183h213l93 -183z" />
    <glyph glyph-name="FL002Ch" unicode="," 
d="M418 359h-213l-95 182l95 183h213l93 -183zM109 204h405l170 337l-170 334h-408l-167 -334zM412 542l-47 92h-106l-48 -92l48 -91h106z" />
    <glyph glyph-name="FL002Dh" unicode="-" 
d="M246 159v56h130v-56h-130zM-61 187l167 334h408l170 -334l-170 -337h-405zM511 187l-93 183h-213l-95 -183l95 -182h213z" />
    <glyph glyph-name="FL002Eh" unicode="." 
d="M418 5h-213l-95 182l95 183h213l93 -183zM109 -150h405l170 337l-170 334h-408l-167 -334zM412 188l-47 92h-106l-48 -92l48 -91h106z" />
    <glyph glyph-name="FL002Fh" unicode="/" 
d="M418 5h-213l-95 182l95 183h213l93 -183zM109 -150h405l170 337l-170 334h-408l-167 -334zM405 159q11 0 19 9t8 17v92q0 9 -8 18.5t-19 9.5h-187q-11 0 -19 -9.5t-8 -18.5v-45h109q0 9 11 9h1q11 0 11 -11v-2q0 -10 -10 -13h-75q-11 0 -18.5 -9t-7.5 -17v-40h94
q1 10 11 10h88zM306 133h-94v-63h94v63z" />
    <glyph glyph-name="FL0030h" unicode="0" 
d="M-61 187l167 334h408l170 -334l-170 -337h-405zM218 70q-11 0 -19 9t-8 19v179q0 9 8 18.5t19 9.5h187q11 0 19 -9.5t8 -18.5v-179q0 -10 -8 -19t-19 -9h-187zM300 144q0 -10 11 -10h1q11 0 11 10v86q0 11 -11 11h-1q-11 0 -11 -11v-86zM511 187l-93 183h-213l-95 -183
l95 -182h213z" />
    <glyph glyph-name="FL0033h" unicode="1" 
d="M418 5h-213l-95 182l95 183h213l93 -183zM109 -150h405l170 337l-170 334h-408l-167 -334zM381 70v235h-141v-66h32v-169h109z" />
    <glyph glyph-name="FL0032h" unicode="2" 
d="M418 5h-213l-95 182l95 183h213l93 -183zM109 -150h405l170 337l-170 334h-408l-167 -334zM405 159q11 0 19 9t8 17v92q0 9 -8 18.5t-19 9.5h-187q-11 0 -19 -9.5t-8 -18.5v-45h109q0 9 11 9h1q11 0 11 -11v-2q0 -10 -10 -13h-95q-11 0 -19 -9t-8 -17v-119h241v72h-109
v-8h-23v15q1 10 11 10h94z" />
    <glyph glyph-name="FL0037h" unicode="3" 
d="M-61 187l167 334h408l170 -334l-170 -337h-405zM511 187l-93 183h-213l-95 -183l95 -182h213zM425 159v-61q0 -10 -7.5 -19t-18.5 -9h-201v65h103q4 0 9 1t5 6v9q0 5 -5 6.5t-10 1.5h-100v56h101q5 0 9.5 1.5t4.5 6.5v9q0 5 -5 6t-9 1h-103v66h201q11 0 18.5 -9.5
t7.5 -18.5v-62q0 -8 -9.5 -16.5t-10.5 -10.5q6 -4 13 -14t7 -15z" />
    <glyph glyph-name="FL0034h" unicode="4" 
d="M-61 187l167 334h408l170 -334l-170 -337h-405zM511 187l-93 183h-213l-95 -183l95 -182h213zM300 305v-90h23v90h109v-235h-109v89h-132v146h109z" />
    <glyph glyph-name="FL0035h" unicode="5" 
d="M-61 187l167 334h408l170 -334l-170 -337h-405zM511 187l-93 183h-213l-95 -183l95 -182h213zM312 159h-121v146h241v-73h-109v9h-23v-13q0 -10 9 -13h96q11 0 19 -9t8 -17v-91q0 -10 -8 -19t-19 -9h-187q-11 0 -19 9t-8 19v44h109q0 -8 11 -8h1q9 0 11 9v6q-1 10 -11 10
z" />
    <glyph glyph-name="FL0036h" unicode="6" 
d="M418 5h-213l-95 182l95 183h213l93 -183zM109 -150h405l170 337l-170 334h-408l-167 -334zM218 70h187q11 0 19 9t8 19v91q0 8 -8 17t-19 9h-96q-9 3 -9 13v3q0 10 11 10h1q11 0 11 -9h109v45q0 9 -8 18.5t-19 9.5h-187q-11 0 -19 -9.5t-8 -18.5v-179q0 -10 8 -19t19 -9z
M300 140v22q0 7 11 7t12 -7v-22q0 -4 -4 -5t-8 -1t-7.5 1t-3.5 5z" />
    <glyph glyph-name="FL003Dh" unicode="7" 
d="M-61 187l167 334h408l170 -334l-170 -337h-405zM511 187l-93 183h-213l-95 -183l95 -182h213zM425 258l-122 -188h-101l109 169h-113v66h227v-47z" />
    <glyph glyph-name="FL0038h" unicode="8" 
d="M418 5h-213l-95 182l95 183h213l93 -183zM109 -150h405l170 337l-170 334h-408l-167 -334zM300 212v22q0 4 3.5 5.5t7.5 1.5t8 -1.5t4 -5.5v-22q-1 -6 -12 -8q-11 2 -11 8zM432 98v60q0 5 -6.5 15.5t-12.5 14.5q2 3 10.5 11.5t8.5 16.5v61q0 9 -8 18.5t-19 9.5h-187
q-11 0 -19 -9.5t-8 -18.5v-61q0 -8 9 -17t10 -11q-4 -4 -11.5 -14.5t-7.5 -15.5v-60q0 -10 8 -19t19 -9h187q11 0 19 9t8 19zM300 140v22q0 7 11 7t12 -7v-22q0 -4 -4 -5t-8 -1t-7.5 1t-3.5 5z" />
    <glyph glyph-name="FL0039h" unicode="9" 
d="M-61 187l167 334h408l170 -334l-170 -337h-405zM511 187l-93 183h-213l-95 -183l95 -182h213zM405 305q11 0 19 -9.5t8 -18.5v-179q0 -10 -8 -19t-19 -9h-187q-11 0 -19 9t-8 19v44h109q0 -8 11 -8h1q9 0 11 9v4q0 9 -10 12h-95q-11 0 -19 9t-8 17v92q0 9 8 18.5t19 9.5
h187zM300 234v-22q0 -6 11 -8q11 2 12 8v22q0 4 -4 5.5t-8 1.5t-7.5 -1.5t-3.5 -5.5z" />
    <glyph glyph-name="FL003Ah" unicode=":" horiz-adv-x="410" 
d="M-61 541l167 334h195l170 -334l-170 -337h-192z" />
    <glyph glyph-name="FL003Bh" unicode=";" horiz-adv-x="410" 
d="M-61 187l167 334h195l170 -334l-170 -337h-192z" />
    <glyph glyph-name="FL003Ch" unicode="&#x3c;" horiz-adv-x="410" 
d="M-61 187l167 334h195l170 -334l-170 -337h-192zM298 187l-93 183l-95 -183l95 -182z" />
    <glyph glyph-name="FL0CB8h" unicode="=" horiz-adv-x="279" 
d="M247 5h-213l-95 182l95 183h213l93 -183z" />
    <glyph glyph-name="FL003Eh" unicode="&#x3e;" horiz-adv-x="410" 
d="M-61 541l167 334h195l170 -334l-170 -337h-192zM298 541l-93 183l-95 -183l95 -182z" />
    <glyph glyph-name="FL003Fh" unicode="?" 
d="M418 359h-213l-95 182l95 183h213l93 -183zM109 204h405l170 337l-170 334h-408l-167 -334zM405 513q11 0 19 9t8 17v92q0 9 -8 18.5t-19 9.5h-187q-11 0 -19 -9.5t-8 -18.5v-45h109q0 9 11 9h1q11 0 11 -11v-2q0 -10 -10 -13h-75q-11 0 -18.5 -9t-7.5 -17v-40h94
q1 10 11 10h88zM306 487h-94v-63h94v63z" />
    <glyph glyph-name="FL0040h" unicode="@" 
d="M418 359h-213l-95 182l95 183h213l93 -183zM109 204h405l170 337l-170 334h-408l-167 -334zM405 513q11 0 19 9t8 17v92q0 9 -8 18.5t-19 9.5h-187q-11 0 -19 -9.5t-8 -18.5v-45h109q0 9 11 9h1q11 0 11 -11v-2q0 -10 -10 -13h-95q-11 0 -19 -9t-8 -17v-119h241v72h-109
v-8h-23v15q1 10 11 10h94z" />
    <glyph glyph-name="FL0041h" unicode="A" 
d="M-61 541l167 334h408l170 -334l-170 -337h-405zM432 424h-109v47h-23v-47h-109v207q0 9 8 18.5t19 9.5h187q11 0 19 -9.5t8 -18.5v-207zM300 584v-55h23v55q0 11 -11 11h-1q-11 0 -11 -11zM511 541l-93 183h-213l-95 -183l95 -182h213z" />
    <glyph glyph-name="FL0042h" unicode="B" 
d="M-61 541l167 334h408l170 -334l-170 -337h-405zM432 508v-56q0 -10 -8 -19t-19 -9h-214v235h214q11 0 19 -9.5t8 -18.5v-57q0 -8 -10 -18t-12 -14q1 -2 4.5 -6.5t7.5 -10t7 -10t3 -7.5zM300 558h6q5 0 10.5 1.5t6.5 6.5v22q0 5 -5 6t-9 1h-9v-37zM300 488h9q4 0 9 0.5
t5 5.5v22q-1 5 -6 6.5t-10 1.5h-7v-36zM511 541l-93 183h-213l-95 -183l95 -182h213z" />
    <glyph glyph-name="FL0043h" unicode="C" 
d="M-61 541l167 334h408l170 -334l-170 -337h-405zM218 424q-11 0 -19 9t-8 19v179q0 9 8 18.5t19 9.5h187q11 0 19 -9.5t8 -18.5v-66h-109v19q0 11 -11 11h-1q-11 0 -11 -11v-86q0 -10 11 -10h1q11 0 11 10v19h109v-65q0 -10 -8 -19t-19 -9h-187zM511 541l-93 183h-213
l-95 -183l95 -182h213z" />
    <glyph glyph-name="FL0044h" unicode="D" 
d="M-61 541l167 334h408l170 -334l-170 -337h-405zM405 659q11 0 19 -9.5t8 -18.5v-179q0 -10 -8 -19t-19 -9h-214v235h214zM300 595v-107h12q11 0 11 10v86q0 11 -11 11h-12zM511 541l-93 183h-213l-95 -183l95 -182h213z" />
    <glyph glyph-name="FL0045h" unicode="E" 
d="M-61 541l167 334h408l170 -334l-170 -337h-405zM204 424v235h214v-66h-105v-24h103v-56h-103v-24h105v-65h-214zM511 541l-93 183h-213l-95 -183l95 -182h213z" />
    <glyph glyph-name="FL0046h" unicode="F" 
d="M-61 541l167 334h408l170 -334l-170 -337h-405zM204 424v235h214v-66h-105v-24h103v-56h-103v-89h-109zM511 541l-93 183h-213l-95 -183l95 -182h213z" />
    <glyph glyph-name="FL0047h" unicode="G" 
d="M-61 541l167 334h408l170 -334l-170 -337h-405zM218 424q-11 0 -19 9t-8 19v179q0 9 8 18.5t19 9.5h187q11 0 19 -9.5t8 -18.5v-55h-109v8q0 11 -11 11h-1q-11 0 -11 -11v-86q0 -10 11 -10h1q7 0 10 6v37q-2 2 -4.5 6.5t-3.5 11.5h125q0 -5 -3 -10.5t-4 -7.5v-79
q0 -10 -8 -19t-19 -9h-187zM511 541l-93 183h-213l-95 -183l95 -182h213z" />
    <glyph glyph-name="FL0048h" unicode="H" 
d="M-61 541l167 334h408l170 -334l-170 -337h-405zM300 659v-90h23v90h109v-235h-109v89h-23v-89h-109v235h109zM511 541l-93 183h-213l-95 -183l95 -182h213z" />
    <glyph glyph-name="FL0049h" unicode="I" 
d="M-61 541l167 334h408l170 -334l-170 -337h-405zM257 659h109v-235h-109v235zM511 541l-93 183h-213l-95 -183l95 -182h213z" />
    <glyph glyph-name="FL004Ah" unicode="J" 
d="M218 424q-11 0 -19 9t-8 19v78h109v-32q0 -10 11 -10h1q11 0 11 10v161h109v-207q0 -10 -8 -19t-19 -9h-187zM-61 541l167 334h408l170 -334l-170 -337h-405zM511 541l-93 183h-213l-95 -183l95 -182h213z" />
    <glyph glyph-name="FL004Bh" unicode="K" 
d="M418 724l93 -183l-93 -182h-213l-95 182l95 183h213zM106 875l-167 -334l170 -337h405l170 337l-170 334h-408zM296 659h-105v-235h105v71l30 -71h108l-49 116l49 119h-109l-29 -73v73z" />
    <glyph glyph-name="FL004Ch" unicode="L" 
d="M-61 541l167 334h408l170 -334l-170 -337h-405zM210 424v235h109v-170h93v-65h-202zM511 541l-93 183h-213l-95 -183l95 -182h213z" />
    <glyph glyph-name="FL004Dh" unicode="M" 
d="M-61 541l167 334h408l170 -334l-170 -337h-405zM434 424h-94v75l-29 -73l-28 74v-76h-94v235h100l22 -82l23 82h100v-235zM511 541l-93 183h-213l-95 -183l95 -182h213z" />
    <glyph glyph-name="FL004Eh" unicode="N" 
d="M-61 541l167 334h408l170 -334l-170 -337h-405zM330 424l-45 77v-77h-94v235h103l43 -82v82h95v-235h-102zM511 541l-93 183h-213l-95 -183l95 -182h213z" />
    <glyph glyph-name="FL004Fh" unicode="O" 
d="M-61 541l167 334h408l170 -334l-170 -337h-405zM218 424q-11 0 -19 9t-8 19v179q0 9 8 18.5t19 9.5h187q11 0 19 -9.5t8 -18.5v-179q0 -10 -8 -19t-19 -9h-187zM300 498q0 -10 11 -10h1q11 0 11 10v86q0 11 -11 11h-1q-11 0 -11 -11v-86zM511 541l-93 183h-213l-95 -183
l95 -182h213z" />
    <glyph glyph-name="FL0050h" unicode="P" 
d="M-61 541l167 334h408l170 -334l-170 -337h-405zM405 659q11 0 19 -9.5t8 -18.5v-132q0 -9 -8 -18.5t-19 -9.5h-105v-47h-109v235h214zM300 595v-60h12q11 0 11 11v38q0 11 -11 11h-12zM511 541l-93 183h-213l-95 -183l95 -182h213z" />
    <glyph glyph-name="FL0051h" unicode="Q" 
d="M300 489q1 3 4.5 8t7.5 9.5t7.5 7.5l3.5 3v67q0 11 -11 11h-1q-11 0 -11 -11v-95zM218 424q-11 0 -19 9t-8 19v179q0 9 8 18.5t19 9.5h187q11 0 19 -9.5t8 -18.5v-179q0 -10 -8 -19t-19 -9h-43l24 -29h-109l-24 29h-35zM-61 541l167 334h408l170 -334l-170 -337h-405z
M511 541l-93 183h-213l-95 -183l95 -182h213z" />
    <glyph glyph-name="FL0052h" unicode="R" 
d="M-61 541l167 334h408l170 -334l-170 -337h-405zM511 541l-93 183h-213l-95 -183l95 -182h213zM405 659q11 0 19 -9.5t8 -18.5v-110q0 -9 -9.5 -18.5t-20.5 -10.5l32 -68h-107l-28 57v-57h-108v235h214zM299 595v-41h13q11 0 11 11v19q0 11 -11 11h-13z" />
    <glyph glyph-name="FL0053h" unicode="S" 
d="M-61 541l167 334h408l170 -334l-170 -337h-405zM218 513q-11 0 -19 9t-8 17v92q0 9 8 18.5t19 9.5h187q11 0 19 -9.5t8 -18.5v-45h-109q0 9 -11 9h-1q-11 0 -11 -11v-2q0 -10 9 -13h96q11 0 19 -9t8 -17v-91q0 -10 -8 -19t-19 -9h-187q-11 0 -19 9t-8 19v44h109
q0 -8 11 -8h1q9 0 11 9v6q-1 10 -11 10h-94zM511 541l-93 183h-213l-95 -183l95 -182h213z" />
    <glyph glyph-name="FL0054h" unicode="T" 
d="M-61 541l167 334h408l170 -334l-170 -337h-405zM194 593v66h235v-66h-63v-169h-109v169h-63zM511 541l-93 183h-213l-95 -183l95 -182h213z" />
    <glyph glyph-name="FL0075h" unicode="U" 
d="M300 498q0 -10 11 -10h1q11 0 11 10v161h109v-207q0 -10 -8 -19t-19 -9h-187q-11 0 -19 9t-8 19v207h109v-161zM-61 541l167 334h408l170 -334l-170 -337h-405zM511 541l-93 183h-213l-95 -183l95 -182h213z" />
    <glyph glyph-name="FL0056h" unicode="V" 
d="M-61 541l167 334h408l170 -334l-170 -337h-405zM188 659h101l22 -80l22 80h101l-72 -235h-101zM511 541l-93 183h-213l-95 -183l95 -182h213z" />
    <glyph glyph-name="FL0057h" unicode="W" 
d="M418 359h-213l-95 182l95 183h213l93 -183zM109 204h405l170 337l-170 334h-408l-167 -334zM257 424q8 0 19.5 7.5t12.5 14.5l22 53l21 -53q1 -6 12 -14t22 -8h39q11 0 21 9t10 19v207h-91v-75l-33 69l-33 -69v75h-92v-207q0 -10 10 -19t21 -9h39z" />
    <glyph glyph-name="FL0058h" unicode="X" 
d="M-61 541l167 334h408l170 -334l-170 -337h-405zM247 540l-58 119h104l18 -46l19 46h104l-58 -119l58 -116h-103l-20 43l-18 -43h-104zM511 541l-93 183h-213l-95 -183l95 -182h213z" />
    <glyph glyph-name="FL0059h" unicode="Y" 
d="M-61 541l167 334h408l170 -334l-170 -337h-405zM367 424h-109v97l-69 138h104l19 -50l19 50h102l-66 -138v-97zM511 541l-93 183h-213l-95 -183l95 -182h213z" />
    <glyph glyph-name="FL005Ah" unicode="Z" 
d="M-61 541l167 334h408l170 -334l-170 -337h-405zM424 596l-105 -107h105v-65h-225v63l106 106h-106v66h225v-63zM511 541l-93 183h-213l-95 -183l95 -182h213z" />
    <glyph glyph-name="FL005Bh" unicode="[" 
d="M-61 187l167 334h408l170 -334l-170 -337h-405zM511 187l-93 183h-213l-95 -183l95 -182h213z" />
    <glyph glyph-name="FL005Ch" unicode="\" 
d="M-61 187l170 -337h405l170 337l-170 334h-408zM257 370v-365h-52l-95 182l95 183h52zM511 187l-93 -182h-52v365h52z" />
    <glyph glyph-name="FL005Dh" unicode="]" 
d="M-61 541l167 334h408l170 -334l-170 -337h-405zM511 541l-93 183h-213l-95 -183l95 -182h213z" />
    <glyph glyph-name="FL005Eh" unicode="^" 
d="M418 359h-213l-95 182l95 183h213l93 -183zM109 204h405l170 337l-170 334h-408l-167 -334zM218 424h187q11 0 19 9t8 19v91q0 8 -8 17t-19 9h-96q-9 3 -9 13v3q0 10 11 10h1q11 0 11 -9h109v45q0 9 -8 18.5t-19 9.5h-187q-11 0 -19 -9.5t-8 -18.5v-179q0 -10 8 -19
t19 -9zM300 494v22q0 7 11 7t12 -7v-22q0 -4 -4 -5t-8 -1t-7.5 1t-3.5 5z" />
    <glyph glyph-name="FL005Fh" unicode="_" 
d="M-61 541l167 334h408l170 -334l-170 -337h-405zM511 541l-93 183h-213l-95 -183l95 -182h213zM246 513v56h130v-56h-130z" />
    <glyph glyph-name="FL0060h" unicode="`" 
d="M106 521l-167 -334l170 -337h405l170 337l-170 334h-408zM205 370h52v-128h-119zM257 132v-127h-52l-67 127h119zM418 370l65 -128h-117v128h52zM366 132h117l-65 -127h-52v127z" />
    <glyph glyph-name="FL0061h" unicode="a" 
d="M511 187l-93 183h-213l-95 -183l95 -182h213zM-61 187l167 334h408l170 -334l-170 -337h-405zM432 70h-109v47h-23v-47h-109v207q0 9 8 18.5t19 9.5h187q11 0 19 -9.5t8 -18.5v-207zM300 230v-55h23v55q0 11 -11 11h-1q-11 0 -11 -11z" />
    <glyph glyph-name="FL0062h" unicode="b" 
d="M-61 187l167 334h408l170 -334l-170 -337h-405zM432 154v-56q0 -10 -8 -19t-19 -9h-214v235h214q11 0 19 -9.5t8 -18.5v-57q0 -8 -10 -18t-12 -14q1 -2 4.5 -6.5t7.5 -10t7 -10t3 -7.5zM300 204h6q5 0 10.5 1.5t6.5 6.5v22q0 5 -5 6t-9 1h-9v-37zM300 134h9q4 0 9 0.5
t5 5.5v22q-1 5 -6 6.5t-10 1.5h-7v-36zM511 187l-93 183h-213l-95 -183l95 -182h213z" />
    <glyph glyph-name="FL0063h" unicode="c" 
d="M-61 187l167 334h408l170 -334l-170 -337h-405zM218 70q-11 0 -19 9t-8 19v179q0 9 8 18.5t19 9.5h187q11 0 19 -9.5t8 -18.5v-66h-109v19q0 11 -11 11h-1q-11 0 -11 -11v-86q0 -10 11 -10h1q11 0 11 10v19h109v-65q0 -10 -8 -19t-19 -9h-187zM511 187l-93 183h-213
l-95 -183l95 -182h213z" />
    <glyph glyph-name="FL0064h" unicode="d" 
d="M-61 187l167 334h408l170 -334l-170 -337h-405zM405 305q11 0 19 -9.5t8 -18.5v-179q0 -10 -8 -19t-19 -9h-214v235h214zM300 241v-107h12q11 0 11 10v86q0 11 -11 11h-12zM511 187l-93 183h-213l-95 -183l95 -182h213z" />
    <glyph glyph-name="FL0065h" unicode="e" 
d="M-61 187l167 334h408l170 -334l-170 -337h-405zM204 70v235h214v-66h-105v-24h103v-56h-103v-24h105v-65h-214zM511 187l-93 183h-213l-95 -183l95 -182h213z" />
    <glyph glyph-name="FL0066h" unicode="f" 
d="M-61 187l167 334h408l170 -334l-170 -337h-405zM204 70v235h214v-66h-105v-24h103v-56h-103v-89h-109zM511 187l-93 183h-213l-95 -183l95 -182h213z" />
    <glyph glyph-name="FL0067h" unicode="g" 
d="M-61 187l167 334h408l170 -334l-170 -337h-405zM218 70q-11 0 -19 9t-8 19v179q0 9 8 18.5t19 9.5h187q11 0 19 -9.5t8 -18.5v-55h-109v8q0 11 -11 11h-1q-11 0 -11 -11v-86q0 -10 11 -10h1q7 0 10 6v37q-2 2 -4.5 6.5t-3.5 11.5h125q0 -5 -3 -10.5t-4 -7.5v-79
q0 -10 -8 -19t-19 -9h-187zM511 187l-93 183h-213l-95 -183l95 -182h213z" />
    <glyph glyph-name="FL0069h" unicode="h" 
d="M-61 187l167 334h408l170 -334l-170 -337h-405zM300 305v-90h23v90h109v-235h-109v89h-23v-89h-109v235h109zM511 187l-93 183h-213l-95 -183l95 -182h213z" />
    <glyph glyph-name="FL006Ah" unicode="i" 
d="M-61 187l167 334h408l170 -334l-170 -337h-405zM366 305v-235h-109v235h109zM511 187l-93 183h-213l-95 -183l95 -182h213z" />
    <glyph glyph-name="FL006Ch" unicode="j" 
d="M218 70q-11 0 -19 9t-8 19v78h109v-32q0 -10 11 -10h1q11 0 11 10v161h109v-207q0 -10 -8 -19t-19 -9h-187zM-61 187l167 334h408l170 -334l-170 -337h-405zM511 187l-93 183h-213l-95 -183l95 -182h213z" />
    <glyph glyph-name="FL006Bh" unicode="k" 
d="M418 370l93 -183l-93 -182h-213l-95 182l95 183h213zM106 521l-167 -334l170 -337h405l170 337l-170 334h-408zM296 305h-105v-235h105v71l30 -71h108l-49 116l49 119h-109l-29 -73v73z" />
    <glyph glyph-name="FL0079h" unicode="l" 
d="M-61 187l167 334h408l170 -334l-170 -337h-405zM210 70v235h109v-170h93v-65h-202zM511 187l-93 183h-213l-95 -183l95 -182h213z" />
    <glyph glyph-name="FL006Dh" unicode="m" 
d="M-61 187l167 334h408l170 -334l-170 -337h-405zM434 70h-94v75l-29 -73l-28 74v-76h-94v235h100l22 -82l23 82h100v-235zM511 187l-93 183h-213l-95 -183l95 -182h213z" />
    <glyph glyph-name="FL006Eh" unicode="n" 
d="M-61 187l167 334h408l170 -334l-170 -337h-405zM330 70l-45 77v-77h-94v235h103l43 -82v82h95v-235h-102zM511 187l-93 183h-213l-95 -183l95 -182h213z" />
    <glyph glyph-name="FL006Fh" unicode="o" 
d="M-61 187l167 334h408l170 -334l-170 -337h-405zM218 70q-11 0 -19 9t-8 19v179q0 9 8 18.5t19 9.5h187q11 0 19 -9.5t8 -18.5v-179q0 -10 -8 -19t-19 -9h-187zM300 144q0 -10 11 -10h1q11 0 11 10v86q0 11 -11 11h-1q-11 0 -11 -11v-86zM511 187l-93 183h-213l-95 -183
l95 -182h213z" />
    <glyph glyph-name="FL0070h" unicode="p" 
d="M-61 187l167 334h408l170 -334l-170 -337h-405zM405 305q11 0 19 -9.5t8 -18.5v-132q0 -9 -8 -18.5t-19 -9.5h-105v-47h-109v235h214zM300 241v-60h12q11 0 11 11v38q0 11 -11 11h-12zM511 187l-93 183h-213l-95 -183l95 -182h213z" />
    <glyph glyph-name="FL0074h" unicode="q" 
d="M300 135q1 3 4.5 8t7.5 9.5t7.5 7.5l3.5 3v67q0 11 -11 11h-1q-11 0 -11 -11v-95zM218 70q-11 0 -19 9t-8 19v179q0 9 8 18.5t19 9.5h187q11 0 19 -9.5t8 -18.5v-179q0 -10 -8 -19t-19 -9h-43l24 -29h-109l-24 29h-35zM106 521h408l170 -334l-170 -337h-405l-170 337z
M511 187l-93 183h-213l-95 -183l95 -182h213z" />
    <glyph glyph-name="FL0072h" unicode="r" 
d="M-61 187l167 334h408l170 -334l-170 -337h-405zM511 187l-93 183h-213l-95 -183l95 -182h213zM405 305q11 0 19 -9.5t8 -18.5v-110q0 -9 -9 -18.5t-20 -10.5l31 -68h-107l-28 58v-58h-108v235h214zM299 241v-41h13q11 0 11 11v19q0 11 -11 11h-13z" />
    <glyph glyph-name="FL0073h" unicode="s" 
d="M-61 187l167 334h408l170 -334l-170 -337h-405zM218 159q-11 0 -19 9t-8 17v92q0 9 8 18.5t19 9.5h187q11 0 19 -9.5t8 -18.5v-45h-109q0 9 -11 9h-1q-11 0 -11 -11v-2q0 -10 9 -13h96q11 0 19 -9t8 -17v-91q0 -10 -8 -19t-19 -9h-187q-11 0 -19 9t-8 19v44h109
q0 -8 11 -8h1q9 0 11 9v6q-1 10 -11 10h-94zM511 187l-93 183h-213l-95 -183l95 -182h213z" />
    <glyph glyph-name="FL0077h" unicode="t" 
d="M-61 187l167 334h408l170 -334l-170 -337h-405zM194 239v66h235v-66h-63v-169h-109v169h-63zM511 187l-93 183h-213l-95 -183l95 -182h213z" />
    <glyph glyph-name="FL0071h" unicode="u" 
d="M300 144q0 -10 11 -10h1q11 0 11 10v161h109v-207q0 -10 -8 -19t-19 -9h-187q-11 0 -19 9t-8 19v207h109v-161zM-61 187l167 334h408l170 -334l-170 -337h-405zM511 187l-93 183h-213l-95 -183l95 -182h213z" />
    <glyph glyph-name="FL0076h" unicode="v" 
d="M-61 187l167 334h408l170 -334l-170 -337h-405zM188 305h101l22 -80l22 80h101l-72 -235h-101zM511 187l-93 183h-213l-95 -183l95 -182h213z" />
    <glyph glyph-name="FL007Bh" unicode="w" 
d="M109 -150h405l170 337l-170 334h-408l-167 -334zM418 5h-213l-95 182l95 183h213l93 -183zM257 70q8 0 19.5 7.5t12.5 14.5l22 53l21 -53q1 -6 12 -14t22 -8h39q11 0 21 9t10 19v207h-91v-75l-33 69l-33 -69v75h-92v-207q0 -10 10 -19t21 -9h39z" />
    <glyph glyph-name="FL0078h" unicode="x" 
d="M-61 187l167 334h408l170 -334l-170 -337h-405zM247 186l-58 119h104l18 -46l19 46h104l-58 -119l58 -116h-103l-20 43l-18 -43h-104zM511 187l-93 183h-213l-95 -183l95 -182h213z" />
    <glyph glyph-name="FL007Ch" unicode="y" 
d="M-61 187l167 334h408l170 -334l-170 -337h-405zM367 70h-109v97l-69 138h104l19 -50l19 50h102l-66 -138v-97zM511 187l-93 183h-213l-95 -183l95 -182h213z" />
    <glyph glyph-name="FL007Ah" unicode="z" 
d="M-61 187l167 334h408l170 -334l-170 -337h-405zM424 242l-105 -107h105v-65h-225v63l106 106h-106v66h225v-63zM511 187l-93 183h-213l-95 -183l95 -182h213z" />
    <glyph glyph-name="FL007Dh" unicode="{" 
d="M-61 187l167 334h408l170 -334l-170 -337h-405z" />
    <glyph glyph-name="FL0080h" unicode="|" 
d="M-61 541l170 -337h405l170 337l-170 334h-408zM257 724v-365h-52l-95 182l95 183h52zM511 541l-93 -182h-52v365h52z" />
    <glyph glyph-name="FL007Eh" unicode="}" 
d="M-61 541l167 334h408l170 -334l-170 -337h-405z" />
    <glyph glyph-name="FL0081h" unicode="~" 
d="M106 875l-167 -334l170 -337h405l170 337l-170 334h-408zM205 724h52v-128h-119zM257 486v-127h-52l-67 127h119zM418 724l65 -128h-117v128h52zM366 486h117l-65 -127h-52v127z" />
    <glyph glyph-name="FL007Fh" horiz-adv-x="207" 
 />
    <glyph glyph-name="space" unicode="&#xa0;" horiz-adv-x="413" 
 />
    <glyph glyph-name="FL00B9h" unicode="&#xa7;" 
d="M-61 101l167 334h408l170 -334l-170 -337h-405zM511 101l-93 183h-213l-95 -183l95 -182h213z" />
    <glyph glyph-name="FL00B1h" unicode="&#xb1;" 
d="M418 370l93 -183l-93 -182h-213l-95 182l95 183h213zM106 521l-167 -334l170 -337h405l170 337l-170 334h-408zM296 232v-91l30 -71h108l-49 116z" />
  </font>
</defs>
</svg>
